<svg width="19" height="19" viewBox="0 0 19 19" fill="none" xmlns="http://www.w3.org/2000/svg">
<g clip-path="url(#clip0_108_1610)">
<path d="M18.9999 9.49997C18.9999 4.25328 14.7467 0 9.49997 0C4.25328 0 0 4.25328 0 9.49997C0 14.2416 3.47398 18.1718 8.0156 18.8845V12.2461H5.6035V9.49997H8.0156V7.40701C8.0156 5.02608 9.43392 3.71093 11.6039 3.71093C12.6429 3.71093 13.7304 3.89647 13.7304 3.89647V6.23436H12.5325C11.3525 6.23436 10.9843 6.96671 10.9843 7.71873V9.49997H13.6191L13.1979 12.2461H10.9843V18.8845C15.526 18.1718 18.9999 14.2416 18.9999 9.49997Z" fill="#99A2A5"/>
</g>
<defs>
<clipPath id="clip0_108_1610">
<rect width="18.7692" height="18.7692" fill="white" transform="scale(1.01229)"/>
</clipPath>
</defs>
</svg>
