<svg width="19" height="19" viewBox="0 0 19 19" fill="none" xmlns="http://www.w3.org/2000/svg">
<g clip-path="url(#clip0_108_1612)">
<path d="M9.49997 1.71074C12.0382 1.71074 12.3388 1.72187 13.3371 1.7664C14.2648 1.80722 14.7658 1.96308 15.0998 2.09296C15.5414 2.26367 15.8605 2.47148 16.1908 2.80175C16.5248 3.13573 16.7289 3.45116 16.8996 3.89276C17.0294 4.22675 17.1853 4.73143 17.2261 5.65545C17.2707 6.6574 17.2818 6.95799 17.2818 9.49255C17.2818 12.0308 17.2707 12.3314 17.2261 13.3296C17.1853 14.2574 17.0294 14.7584 16.8996 15.0923C16.7289 15.5339 16.521 15.8531 16.1908 16.1834C15.8568 16.5173 15.5414 16.7214 15.0998 16.8921C14.7658 17.022 14.2611 17.1779 13.3371 17.2187C12.3351 17.2632 12.0345 17.2744 9.49997 17.2744C6.9617 17.2744 6.66111 17.2632 5.66287 17.2187C4.73514 17.1779 4.23417 17.022 3.90018 16.8921C3.45858 16.7214 3.13944 16.5136 2.80917 16.1834C2.47519 15.8494 2.27109 15.5339 2.10038 15.0923C1.9705 14.7584 1.81464 14.2537 1.77382 13.3296C1.72929 12.3277 1.71816 12.0271 1.71816 9.49255C1.71816 6.95428 1.72929 6.65369 1.77382 5.65545C1.81464 4.72772 1.9705 4.22675 2.10038 3.89276C2.27109 3.45116 2.4789 3.13202 2.80917 2.80175C3.14315 2.46777 3.45858 2.26367 3.90018 2.09296C4.23417 1.96308 4.73885 1.80722 5.66287 1.7664C6.66111 1.72187 6.9617 1.71074 9.49997 1.71074ZM9.49997 0C6.92088 0 6.59803 0.0111328 5.58494 0.0556639C4.57557 0.100195 3.88163 0.263476 3.28046 0.497264C2.65331 0.742185 2.12265 1.06504 1.5957 1.5957C1.06504 2.12265 0.742185 2.65331 0.497264 3.27675C0.263476 3.88163 0.100195 4.57186 0.0556639 5.58123C0.0111328 6.59803 0 6.92088 0 9.49997C0 12.0791 0.0111328 12.4019 0.0556639 13.415C0.100195 14.4244 0.263476 15.1183 0.497264 15.7195C0.742185 16.3466 1.06504 16.8773 1.5957 17.4042C2.12265 17.9312 2.65331 18.2578 3.27675 18.499C3.88163 18.7328 4.57186 18.896 5.58123 18.9406C6.59432 18.9851 6.91717 18.9962 9.49626 18.9962C12.0754 18.9962 12.3982 18.9851 13.4113 18.9406C14.4207 18.896 15.1146 18.7328 15.7158 18.499C16.3392 18.2578 16.8699 17.9312 17.3968 17.4042C17.9238 16.8773 18.2503 16.3466 18.4915 15.7232C18.7253 15.1183 18.8886 14.4281 18.9331 13.4187C18.9777 12.4056 18.9888 12.0828 18.9888 9.50368C18.9888 6.92459 18.9777 6.60174 18.9331 5.58866C18.8886 4.57928 18.7253 3.88534 18.4915 3.28417C18.2578 2.65331 17.9349 2.12265 17.4042 1.5957C16.8773 1.06875 16.3466 0.742185 15.7232 0.500975C15.1183 0.267187 14.4281 0.103906 13.4187 0.0593748C12.4019 0.0111328 12.0791 0 9.49997 0Z" fill="#99A2A5"/>
<path d="M9.49993 4.6201C6.8058 4.6201 4.62007 6.80583 4.62007 9.49996C4.62007 12.1941 6.8058 14.3798 9.49993 14.3798C12.1941 14.3798 14.3798 12.1941 14.3798 9.49996C14.3798 6.80583 12.1941 4.6201 9.49993 4.6201ZM9.49993 12.6654C7.75209 12.6654 6.33451 11.2478 6.33451 9.49996C6.33451 7.75212 7.75209 6.33454 9.49993 6.33454C11.2478 6.33454 12.6654 7.75212 12.6654 9.49996C12.6654 11.2478 11.2478 12.6654 9.49993 12.6654Z" fill="#99A2A5"/>
<path d="M15.7121 4.4271C15.7121 5.05796 15.2 5.56636 14.5729 5.56636C13.942 5.56636 13.4336 5.05425 13.4336 4.4271C13.4336 3.79625 13.9457 3.28785 14.5729 3.28785C15.2 3.28785 15.7121 3.79996 15.7121 4.4271Z" fill="#99A2A5"/>
</g>
<defs>
<clipPath id="clip0_108_1612">
<rect width="18.7692" height="18.7692" fill="white" transform="scale(1.01229)"/>
</clipPath>
</defs>
</svg>
