<svg width="19" height="19" viewBox="0 0 19 19" fill="none" xmlns="http://www.w3.org/2000/svg">
<g clip-path="url(#clip0_108_1611)">
<path d="M5.97719 17.2187C13.1452 17.2187 17.0669 11.2787 17.0669 6.12901C17.0669 5.96202 17.0632 5.79131 17.0558 5.62432C17.8187 5.07261 18.477 4.38924 18.9999 3.60632C18.2894 3.92243 17.5351 4.12888 16.7626 4.21862C17.576 3.73109 18.185 2.96521 18.4767 2.06294C17.7116 2.5164 16.8748 2.83628 16.0023 3.00886C15.4144 2.3842 14.6371 1.9706 13.7905 1.832C12.944 1.69341 12.0754 1.83755 11.319 2.24212C10.5626 2.6467 9.96056 3.28918 9.60593 4.07024C9.25131 4.85131 9.16385 5.72744 9.3571 6.56319C7.80778 6.48544 6.2921 6.08297 4.9083 5.38186C3.52451 4.68076 2.3035 3.69668 1.32443 2.49341C0.826814 3.35136 0.674543 4.36659 0.898563 5.33278C1.12258 6.29896 1.70609 7.14359 2.53048 7.69502C1.91157 7.67537 1.30623 7.50874 0.764451 7.20889V7.25713C0.763896 8.15748 1.07516 9.03024 1.64532 9.72705C2.21549 10.4239 3.00937 10.9017 3.89202 11.0794C3.3187 11.2362 2.71698 11.2591 2.13341 11.1462C2.38248 11.9205 2.86707 12.5977 3.51956 13.0834C4.17205 13.569 4.95987 13.8388 5.77309 13.8552C4.39249 14.9396 2.68705 15.5279 0.931443 15.5251C0.6201 15.5246 0.309065 15.5055 0 15.4679C1.78351 16.6121 3.8582 17.2198 5.97719 17.2187Z" fill="#99A2A5"/>
</g>
<defs>
<clipPath id="clip0_108_1611">
<rect width="18.7692" height="18.7692" fill="white" transform="scale(1.01229)"/>
</clipPath>
</defs>
</svg>
