<svg width="11" height="7" viewBox="0 0 11 7" fill="none" xmlns="http://www.w3.org/2000/svg">
<path d="M0.0713153 3.94789C0.277172 3.11219 0.894904 2.4582 1.7306 2.19171C2.55419 1.93732 3.43838 2.11904 4.08026 2.70035L5.48524 3.93578L5.76377 2.08274C5.89699 1.23493 6.44202 0.520307 7.25345 0.181222C7.4109 0.120624 7.56836 0.0721777 7.72581 0.0479545C8.39194 -0.0852731 9.08231 0.0600661 9.63948 0.471901C10.3783 1.00481 10.7537 1.90107 10.6326 2.79729C10.4994 3.69355 9.89378 4.45658 9.0339 4.75937L7.72581 5.23172L6.11496 5.82519C6.10285 5.82519 6.10285 5.82519 6.10285 5.82519L3.30507 6.85463C3.02655 6.95157 2.73587 7.00005 2.4573 7.00005C1.86375 7.00005 1.28243 6.78196 0.822194 6.37021C0.143985 5.76463 -0.146693 4.832 0.0713153 3.94789Z" fill="#FE9923"/>
</svg>
