<svg width="18" height="10" viewBox="0 0 18 10" fill="none" xmlns="http://www.w3.org/2000/svg">
<path d="M0.11141 7.3566L0.928451 9.61548C1.02461 9.85579 1.2529 9.99997 1.49321 9.99997C1.5653 9.99997 1.63739 9.98796 1.69743 9.96397L7.90939 7.70509L8.47407 5.84271L9.97599 6.1791L11.2976 6.47948L17.5096 4.2206C17.822 4.10049 17.9781 3.75201 17.8701 3.45162L17.041 1.19282C16.8848 0.736241 16.5483 0.375702 16.1158 0.171482C15.6832 -0.0327388 15.1906 -0.0568095 14.7341 0.111405L9.97595 1.84161L9.65149 1.96172C9.65149 1.96172 8.35388 4.31677 8.31779 4.31677C8.29372 4.31677 7.7771 4.0284 7.27246 3.75201C6.76794 3.47565 6.26325 3.18733 6.26325 3.18733L1.19283 5.03765C0.736245 5.20586 0.375786 5.54233 0.171566 5.97488C-0.0327742 6.40739 -0.0567657 6.90006 0.11141 7.3566Z" fill="#FF3E75"/>
</svg>
