<svg width="8" height="7" viewBox="0 0 8 7" fill="none" xmlns="http://www.w3.org/2000/svg">
<path d="M0.827871 6.36589C1.29129 6.78049 1.87665 7.00008 2.47425 7.00008C2.7547 7.00008 3.04738 6.95126 3.32787 6.85366L6.14494 5.81711C6.14494 5.81711 6.14494 5.81711 6.15714 5.81711L7.77909 5.21955V0C7.62055 0.0244309 7.46202 0.0731707 7.30348 0.134187C6.48645 0.47561 5.93763 1.19516 5.80352 2.04882L5.52307 3.91463L4.1084 2.67069C3.4621 2.08537 2.57181 1.9024 1.74255 2.15854C0.901082 2.42687 0.279131 3.08537 0.0718141 3.92683C-0.147739 4.81707 0.144944 5.75614 0.827871 6.36589Z" fill="#FE8821"/>
</svg>
