<svg width="6" height="4" viewBox="0 0 6 4" fill="none" xmlns="http://www.w3.org/2000/svg">
<path d="M3.59153 0.932371L5.12377 1.14335C5.37018 1.17721 5.59757 1.00499 5.63148 0.758521C5.66546 0.51205 5.49313 0.284668 5.24666 0.250751L3.71441 0.0397723C2.8628 -0.0775672 2.00756 0.0658676 1.23919 0.455015L0.293644 0.938791C0.106251 1.03476 -0.0088117 1.23267 0.000528765 1.44306C0.00986923 1.6534 0.142037 1.84038 0.337486 1.91942L1.38829 2.34395C1.84393 2.52358 2.24889 2.81856 2.55946 3.19702L3.08311 3.83521C3.1722 3.94379 3.30139 4.00001 3.43169 4.00001C3.53222 4.00001 3.63338 3.9665 3.71721 3.89779C3.90957 3.74 3.93753 3.45616 3.77974 3.26375L3.25609 2.62556C3.04908 2.37331 2.81002 2.14949 2.54715 1.95941C2.90483 2.03875 3.24885 2.17594 3.56485 2.36794L4.90847 3.1843C4.98156 3.22878 5.0623 3.24986 5.14199 3.24986C5.29418 3.24986 5.44263 3.1728 5.52745 3.03322C5.65664 2.82054 5.58904 2.54348 5.37637 2.41429L4.03275 1.59794C3.50653 1.2782 2.91919 1.07791 2.31159 1.00727C2.72642 0.899328 3.15947 0.873 3.59153 0.932371Z" fill="#4A80AA"/>
</svg>
