<svg width="19" height="19" viewBox="0 0 19 19" fill="none" xmlns="http://www.w3.org/2000/svg">
<g clip-path="url(#clip0_108_1613)">
<path d="M18.8107 5.70003C18.8107 5.70003 18.6251 4.39007 18.0537 3.81488C17.33 3.05785 16.521 3.05414 16.15 3.00961C13.4929 2.81664 9.50368 2.81664 9.50368 2.81664H9.49626C9.49626 2.81664 5.50701 2.81664 2.84999 3.00961C2.4789 3.05414 1.66992 3.05785 0.946286 3.81488C0.374804 4.39007 0.192968 5.70003 0.192968 5.70003C0.192968 5.70003 0 7.24007 0 8.77639V10.2162C0 11.7526 0.189257 13.2926 0.189257 13.2926C0.189257 13.2926 0.374803 14.6025 0.942575 15.1777C1.66621 15.9348 2.6162 15.9088 3.03925 15.9904C4.56073 16.1352 9.49997 16.1797 9.49997 16.1797C9.49997 16.1797 13.4929 16.1723 16.15 15.983C16.521 15.9385 17.33 15.9348 18.0537 15.1777C18.6251 14.6025 18.8107 13.2926 18.8107 13.2926C18.8107 13.2926 18.9999 11.7563 18.9999 10.2162V8.77639C18.9999 7.24007 18.8107 5.70003 18.8107 5.70003ZM7.53689 11.9641V6.62405L12.6691 9.30334L7.53689 11.9641Z" fill="#99A2A5"/>
</g>
<defs>
<clipPath id="clip0_108_1613">
<rect width="18.7692" height="18.7692" fill="white" transform="scale(1.01229)"/>
</clipPath>
</defs>
</svg>
